<?xml version="1.0" encoding="UTF-8"?>
<!DOCTYPE svg PUBLIC "-//W3C//DTD SVG 1.1//EN" "http://www.w3.org/Graphics/SVG/1.1/DTD/svg11.dtd">
<svg xmlns="http://www.w3.org/2000/svg" version="1.1" width="299px" height="198px" style="shape-rendering:geometricPrecision; text-rendering:geometricPrecision; image-rendering:optimizeQuality; fill-rule:evenodd; clip-rule:evenodd" xmlns:xlink="http://www.w3.org/1999/xlink">
<g><path style="opacity:0.98" fill="#eb1c23" d="M 98.5,-0.5 C 100.167,-0.5 101.833,-0.5 103.5,-0.5C 118.812,15.479 134.479,31.1457 150.5,46.5C 166.521,31.1457 182.188,15.479 197.5,-0.5C 199.167,-0.5 200.833,-0.5 202.5,-0.5C 234.167,31.8333 266.167,63.8333 298.5,95.5C 298.5,96.5 298.5,97.5 298.5,98.5C 265.521,131.146 232.521,163.812 199.5,196.5C 183.167,180.5 166.833,164.5 150.5,148.5C 134.347,164.153 118.347,179.986 102.5,196C 101.5,196.667 100.5,196.667 99.5,196C 66.6529,163.32 33.9862,130.486 1.5,97.5C 33.8544,64.8124 66.1878,32.1458 98.5,-0.5 Z M 149.5,49.5 C 166.428,64.7601 182.762,80.7601 198.5,97.5C 182.833,113.833 166.833,129.833 150.5,145.5C 134.167,129.833 118.167,113.833 102.5,97.5C 118.188,81.4792 133.855,65.4792 149.5,49.5 Z"/></g>
</svg>
