<?xml version="1.0" encoding="UTF-8"?>
<!DOCTYPE svg PUBLIC "-//W3C//DTD SVG 1.1//EN" "http://www.w3.org/Graphics/SVG/1.1/DTD/svg11.dtd">
<svg xmlns="http://www.w3.org/2000/svg" version="1.1" width="200px" height="100px" style="shape-rendering:geometricPrecision; text-rendering:geometricPrecision; image-rendering:optimizeQuality; fill-rule:evenodd; clip-rule:evenodd" xmlns:xlink="http://www.w3.org/1999/xlink">
<g><path style="opacity:1" fill="#fbfdfd" d="M -0.5,-0.5 C 66.1667,-0.5 132.833,-0.5 199.5,-0.5C 199.5,32.8333 199.5,66.1667 199.5,99.5C 174.167,99.5 148.833,99.5 123.5,99.5C 123.5,98.1667 123.5,96.8333 123.5,95.5C 130.288,96.7875 132.621,94.2875 130.5,88C 131.536,86.3831 132.703,86.2164 134,87.5C 134.497,90.146 134.664,92.8127 134.5,95.5C 136.288,95.7852 137.955,95.4519 139.5,94.5C 140.092,90.4847 141.425,86.818 143.5,83.5C 142.5,83.5 141.5,83.5 140.5,83.5C 140.167,83.5 139.833,83.5 139.5,83.5C 141.111,81.9054 143.111,80.7388 145.5,80C 148.146,79.5026 150.813,79.3359 153.5,79.5C 153.5,80.5 153.5,81.5 153.5,82.5C 150.615,82.1936 147.948,82.5269 145.5,83.5C 145.5,83.8333 145.5,84.1667 145.5,84.5C 144.842,85.7933 144.508,87.2933 144.5,89C 144.305,91.3523 144.972,93.3523 146.5,95C 150.819,95.0759 155.152,94.9093 159.5,94.5C 162.355,95.8032 165.355,95.8032 168.5,94.5C 166.943,91.7266 167.443,89.3933 170,87.5C 170.002,90.0512 170.836,92.0512 172.5,93.5C 172.5,94.1667 172.833,94.5 173.5,94.5C 175.265,95.4614 177.265,95.7947 179.5,95.5C 179.731,91.1355 180.064,86.9688 180.5,83C 179.371,80.8322 177.871,80.3322 176,81.5C 176.148,80.175 175.982,79.0084 175.5,78C 173.866,77.5065 172.199,77.3398 170.5,77.5C 179.982,74.6875 186.648,68.6875 190.5,59.5C 191.559,54.5523 191.726,49.5523 191,44.5C 189.974,41.7613 188.474,39.428 186.5,37.5C 177.675,26.0691 166.675,23.5691 153.5,30C 149.26,32.7379 145.926,36.2379 143.5,40.5C 142.883,40.3893 142.383,40.056 142,39.5C 141.04,42.0648 139.54,44.2315 137.5,46C 138,46.5 138.5,47 139,47.5C 139.546,50.8546 139.379,54.1879 138.5,57.5C 138.437,59.4809 139.104,61.1476 140.5,62.5C 138.257,63.4742 135.924,63.8076 133.5,63.5C 128.99,59.8234 124.99,55.6567 121.5,51C 128.79,42.7088 136.456,34.7088 144.5,27C 139.167,26.3333 133.833,26.3333 128.5,27C 117.697,38.8042 106.53,50.3042 95,61.5C 94.3333,66.5 94.3333,71.5 95,76.5C 101,70.5 107,64.5 113,58.5C 114.707,60.0375 116.207,61.7041 117.5,63.5C 117.343,64.8734 117.51,66.2068 118,67.5C 122.395,70.6742 125.562,74.6742 127.5,79.5C 126.127,79.3433 124.793,79.51 123.5,80C 125.319,80.7403 126.652,81.9069 127.5,83.5C 127.5,84.1667 127.167,84.5 126.5,84.5C 123.639,82.9272 120.472,82.2605 117,82.5C 114.071,82.5248 111.571,83.1914 109.5,84.5C 108.883,84.6107 108.383,84.944 108,85.5C 106.211,83.771 104.044,83.1043 101.5,83.5C 100.833,81.5 100.167,79.5 99.5,77.5C 98.1667,77.5 96.8333,77.5 95.5,77.5C 93.6687,78.9949 91.502,79.6616 89,79.5C 78.7987,78.3497 68.4653,78.3497 58,79.5C 56.1667,79.3333 54.3333,79.1667 52.5,79C 51.944,78.6174 51.6107,78.1174 51.5,77.5C 64.5,77.5 77.5,77.5 90.5,77.5C 90.5,73.8333 90.5,70.1667 90.5,66.5C 81.1667,66.5 71.8333,66.5 62.5,66.5C 62.5,63.1667 62.5,59.8333 62.5,56.5C 70.8333,56.5 79.1667,56.5 87.5,56.5C 87.8128,52.9581 87.4794,49.6248 86.5,46.5C 78.5,46.5 70.5,46.5 62.5,46.5C 62.5,43.1667 62.5,39.8333 62.5,36.5C 71.8333,36.5 81.1667,36.5 90.5,36.5C 90.5,33.1667 90.5,29.8333 90.5,26.5C 77.5,26.5 64.5,26.5 51.5,26.5C 50.5489,27.9187 50.2155,29.5853 50.5,31.5C 49.1049,35.5911 48.2715,39.9244 48,44.5C 47.5034,42.1902 47.3367,39.8568 47.5,37.5C 42.1667,37.5 36.8333,37.5 31.5,37.5C 31.5,37.1667 31.5,36.8333 31.5,36.5C 36.5,36.5 41.5,36.5 46.5,36.5C 46.5,33.5 46.5,30.5 46.5,27.5C 32.6766,26.5042 18.6766,26.1709 4.5,26.5C 4.5,29.8333 4.5,33.1667 4.5,36.5C 2.90078,35.438 1.23411,35.438 -0.5,36.5C -0.5,24.1667 -0.5,11.8333 -0.5,-0.5 Z"/></g>
<g><path style="opacity:1" fill="#51b2d1" d="M 95.5,4.5 C 103.298,11.7975 110.965,19.2975 118.5,27C 111,34.5 103.5,42 96,49.5C 95.3333,48.1667 95.3333,46.8333 96,45.5C 98.8941,39.4824 101.394,33.3157 103.5,27C 100.395,19.6293 97.7279,12.1293 95.5,4.5 Z"/></g>
<g><path style="opacity:1" fill="#395881" d="M 31.5,27.5 C 34.977,28.3227 38.6437,28.8227 42.5,29C 43.3081,29.3076 43.9747,29.8076 44.5,30.5C 39.544,31.4941 34.544,31.8275 29.5,31.5C 29.6665,43.1714 29.4999,54.8381 29,66.5C 27.9342,68.0995 26.4342,69.0995 24.5,69.5C 22.0428,67.9991 22.0428,66.3324 24.5,64.5C 25.325,63.6143 26.325,63.281 27.5,63.5C 27.1667,52.8333 26.8333,42.1667 26.5,31.5C 25.5,31.5 24.5,31.5 23.5,31.5C 23.6646,34.5184 23.498,37.5184 23,40.5C 22.0656,39.1416 21.2323,37.8083 20.5,36.5C 20.8277,31.5987 19.4944,30.7654 16.5,34C 13.1667,34.6667 9.83333,34.6667 6.5,34C 5.59391,32.3005 5.26057,30.4672 5.5,28.5C 14.1549,27.9175 22.8215,27.5841 31.5,27.5 Z"/></g>
<g><path style="opacity:1" fill="#fefefe" d="M 50.5,31.5 C 50.1705,47.0091 50.5038,62.3424 51.5,77.5C 51.6107,78.1174 51.944,78.6174 52.5,79C 54.3333,79.1667 56.1667,79.3333 58,79.5C 68.4653,78.3497 78.7987,78.3497 89,79.5C 91.502,79.6616 93.6687,78.9949 95.5,77.5C 95.2267,79.451 95.8934,80.951 97.5,82C 96.5842,82.2784 95.9175,82.7784 95.5,83.5C 95.87,87.2326 96.5367,90.8993 97.5,94.5C 98.8333,94.5 100.167,94.5 101.5,94.5C 105.838,93.1314 108.504,94.7981 109.5,99.5C 72.8333,99.5 36.1667,99.5 -0.5,99.5C -0.5,78.5 -0.5,57.5 -0.5,36.5C 1.23411,35.438 2.90078,35.438 4.5,36.5C 9.5,36.5 14.5,36.5 19.5,36.5C 19.5,50.1667 19.5,63.8333 19.5,77.5C 23.5,77.5 27.5,77.5 31.5,77.5C 31.5,64.1667 31.5,50.8333 31.5,37.5C 36.8333,37.5 42.1667,37.5 47.5,37.5C 47.3367,39.8568 47.5034,42.1902 48,44.5C 48.2715,39.9244 49.1049,35.5911 50.5,31.5 Z"/></g>
<g><path style="opacity:1" fill="#4d6179" d="M 46.5,27.5 C 41.5,27.5 36.5,27.5 31.5,27.5C 22.8215,27.5841 14.1549,27.9175 5.5,28.5C 5.26057,30.4672 5.59391,32.3005 6.5,34C 9.83333,34.6667 13.1667,34.6667 16.5,34C 19.4944,30.7654 20.8277,31.5987 20.5,36.5C 20.1667,36.5 19.8333,36.5 19.5,36.5C 14.5,36.5 9.5,36.5 4.5,36.5C 4.5,33.1667 4.5,29.8333 4.5,26.5C 18.6766,26.1709 32.6766,26.5042 46.5,27.5 Z"/></g>
<g><path style="opacity:1" fill="#596d83" d="M 51.5,27.5 C 51.5,27.1667 51.5,26.8333 51.5,26.5C 64.5,26.5 77.5,26.5 90.5,26.5C 90.5,29.8333 90.5,33.1667 90.5,36.5C 81.1667,36.5 71.8333,36.5 62.5,36.5C 62.5,39.8333 62.5,43.1667 62.5,46.5C 61.0923,41.5663 61.259,36.5663 63,31.5C 63.49,32.7932 63.6567,34.1266 63.5,35.5C 71.5069,35.6664 79.5069,35.4997 87.5,35C 89.2785,32.8646 89.9452,30.3646 89.5,27.5C 76.8333,27.5 64.1667,27.5 51.5,27.5 Z"/></g>
<g><path style="opacity:1" fill="#3a5881" d="M 186.5,37.5 C 188.474,39.428 189.974,41.7613 191,44.5C 191.726,49.5523 191.559,54.5523 190.5,59.5C 186.408,63.4633 182.408,67.63 178.5,72C 176.466,73.2053 174.466,73.372 172.5,72.5C 173.325,71.6143 174.325,71.281 175.5,71.5C 175.351,70.448 175.517,69.448 176,68.5C 182.309,63.3823 184.475,56.8823 182.5,49C 183.167,48 183.833,47 184.5,46C 182.241,44.2538 180.908,41.9205 180.5,39C 180.667,37.5 181.5,36.6667 183,36.5C 184.138,36.9891 185.305,37.3225 186.5,37.5 Z"/></g>
<g><path style="opacity:1" fill="#96aac1" d="M 19.5,36.5 C 19.8333,36.5 20.1667,36.5 20.5,36.5C 20.5,49.8333 20.5,63.1667 20.5,76.5C 23.8333,76.5 27.1667,76.5 30.5,76.5C 30.1711,62.9895 30.5044,49.6562 31.5,36.5C 31.5,36.8333 31.5,37.1667 31.5,37.5C 31.5,50.8333 31.5,64.1667 31.5,77.5C 27.5,77.5 23.5,77.5 19.5,77.5C 19.5,63.8333 19.5,50.1667 19.5,36.5 Z"/></g>
<g><path style="opacity:1" fill="#667689" d="M 86.5,46.5 C 87.4794,49.6248 87.8128,52.9581 87.5,56.5C 79.1667,56.5 70.8333,56.5 62.5,56.5C 70.3159,55.5076 78.3159,55.1743 86.5,55.5C 86.5,52.5 86.5,49.5 86.5,46.5 Z"/></g>
<g><path style="opacity:1" fill="#3b587e" d="M 51.5,27.5 C 64.1667,27.5 76.8333,27.5 89.5,27.5C 89.9452,30.3646 89.2785,32.8646 87.5,35C 79.5069,35.4997 71.5069,35.6664 63.5,35.5C 63.6567,34.1266 63.49,32.7932 63,31.5C 61.259,36.5663 61.0923,41.5663 62.5,46.5C 70.5,46.5 78.5,46.5 86.5,46.5C 86.5,49.5 86.5,52.5 86.5,55.5C 78.3159,55.1743 70.3159,55.5076 62.5,56.5C 62.5,59.8333 62.5,63.1667 62.5,66.5C 71.3178,67.4933 80.3178,67.8266 89.5,67.5C 89.5,70.5 89.5,73.5 89.5,76.5C 76.8333,76.5 64.1667,76.5 51.5,76.5C 51.5,60.1667 51.5,43.8333 51.5,27.5 Z"/></g>
<g><path style="opacity:1" fill="#3a597c" d="M 31.5,27.5 C 36.5,27.5 41.5,27.5 46.5,27.5C 46.5,30.5 46.5,33.5 46.5,36.5C 41.5,36.5 36.5,36.5 31.5,36.5C 30.5044,49.6562 30.1711,62.9895 30.5,76.5C 27.1667,76.5 23.8333,76.5 20.5,76.5C 20.5,63.1667 20.5,49.8333 20.5,36.5C 21.2323,37.8083 22.0656,39.1416 23,40.5C 23.498,37.5184 23.6646,34.5184 23.5,31.5C 24.5,31.5 25.5,31.5 26.5,31.5C 26.8333,42.1667 27.1667,52.8333 27.5,63.5C 26.325,63.281 25.325,63.6143 24.5,64.5C 22.0428,66.3324 22.0428,67.9991 24.5,69.5C 26.4342,69.0995 27.9342,68.0995 29,66.5C 29.4999,54.8381 29.6665,43.1714 29.5,31.5C 34.544,31.8275 39.544,31.4941 44.5,30.5C 43.9747,29.8076 43.3081,29.3076 42.5,29C 38.6437,28.8227 34.977,28.3227 31.5,27.5 Z"/></g>
<g><path style="opacity:1" fill="#3a5682" d="M 143.5,62.5 C 143.5,62.1667 143.5,61.8333 143.5,61.5C 142.658,56.9396 143.991,53.273 147.5,50.5C 148.881,52.9659 148.381,54.9659 146,56.5C 145.219,57.9437 145.386,59.277 146.5,60.5C 150.119,62.3822 152.953,65.0489 155,68.5C 156.44,67.8524 157.94,67.5191 159.5,67.5C 159.351,68.552 159.517,69.552 160,70.5C 163.639,68.3743 167.472,68.0409 171.5,69.5C 168.329,71.0697 164.996,72.5697 161.5,74C 157.845,75.0053 155.512,73.672 154.5,70C 150.704,69.7706 148.371,67.7706 147.5,64C 146.255,63.2086 144.922,62.7086 143.5,62.5 Z"/></g>
<g><path style="opacity:1" fill="#3e5a7d" d="M 133.5,63.5 C 136.434,67.7728 139.767,71.7728 143.5,75.5C 139.702,76.4834 135.702,76.8168 131.5,76.5C 126.833,72.1667 122.167,67.8333 117.5,63.5C 116.207,61.7041 114.707,60.0375 113,58.5C 107,64.5 101,70.5 95,76.5C 94.3333,71.5 94.3333,66.5 95,61.5C 106.53,50.3042 117.697,38.8042 128.5,27C 133.833,26.3333 139.167,26.3333 144.5,27C 136.456,34.7088 128.79,42.7088 121.5,51C 124.99,55.6567 128.99,59.8234 133.5,63.5 Z"/></g>
<g><path style="opacity:1" fill="#405c7d" d="M 186.5,37.5 C 185.305,37.3225 184.138,36.9891 183,36.5C 181.5,36.6667 180.667,37.5 180.5,39C 180.908,41.9205 182.241,44.2538 184.5,46C 183.833,47 183.167,48 182.5,49C 184.475,56.8823 182.309,63.3823 176,68.5C 175.517,69.448 175.351,70.448 175.5,71.5C 174.325,71.281 173.325,71.6143 172.5,72.5C 174.466,73.372 176.466,73.2053 178.5,72C 182.408,67.63 186.408,63.4633 190.5,59.5C 186.648,68.6875 179.982,74.6875 170.5,77.5C 158.375,78.0256 149.375,73.0256 143.5,62.5C 144.922,62.7086 146.255,63.2086 147.5,64C 148.371,67.7706 150.704,69.7706 154.5,70C 155.512,73.672 157.845,75.0053 161.5,74C 164.996,72.5697 168.329,71.0697 171.5,69.5C 167.472,68.0409 163.639,68.3743 160,70.5C 159.517,69.552 159.351,68.552 159.5,67.5C 157.94,67.5191 156.44,67.8524 155,68.5C 152.953,65.0489 150.119,62.3822 146.5,60.5C 145.386,59.277 145.219,57.9437 146,56.5C 148.381,54.9659 148.881,52.9659 147.5,50.5C 143.991,53.273 142.658,56.9396 143.5,61.5C 142.778,61.0825 142.278,60.4158 142,59.5C 141.022,52.9926 141.522,46.6592 143.5,40.5C 145.926,36.2379 149.26,32.7379 153.5,30C 166.675,23.5691 177.675,26.0691 186.5,37.5 Z"/></g>
<g><path style="opacity:1" fill="#f9fbfb" d="M 161.5,36.5 C 177.868,36.0304 184.035,43.6971 180,59.5C 172.022,69.2114 163.356,69.878 154,61.5C 148.629,50.5901 151.129,42.2567 161.5,36.5 Z"/></g>
<g><path style="opacity:1" fill="#f2fbfb" d="M 143.5,40.5 C 141.522,46.6592 141.022,52.9926 142,59.5C 142.278,60.4158 142.778,61.0825 143.5,61.5C 143.5,61.8333 143.5,62.1667 143.5,62.5C 149.375,73.0256 158.375,78.0256 170.5,77.5C 172.199,77.3398 173.866,77.5065 175.5,78C 175.982,79.0084 176.148,80.175 176,81.5C 177.871,80.3322 179.371,80.8322 180.5,83C 180.064,86.9688 179.731,91.1355 179.5,95.5C 177.265,95.7947 175.265,95.4614 173.5,94.5C 175.288,94.7852 176.955,94.4519 178.5,93.5C 177.91,92.2011 176.91,91.3678 175.5,91C 178.167,89.6667 178.167,88.3333 175.5,87C 177.886,86.7165 178.552,85.7165 177.5,84C 175.866,83.5065 174.199,83.3398 172.5,83.5C 172.5,86.8333 172.5,90.1667 172.5,93.5C 170.836,92.0512 170.002,90.0512 170,87.5C 167.443,89.3933 166.943,91.7266 168.5,94.5C 165.355,95.8032 162.355,95.8032 159.5,94.5C 155.152,94.9093 150.819,95.0759 146.5,95C 144.972,93.3523 144.305,91.3523 144.5,89C 144.508,87.2933 144.842,85.7933 145.5,84.5C 145.336,87.1873 145.503,89.854 146,92.5C 148.333,95.1667 150.667,95.1667 153,92.5C 153.498,89.5184 153.665,86.5184 153.5,83.5C 152.5,83.5 151.5,83.5 150.5,83.5C 149.833,95.5 149.167,95.5 148.5,83.5C 147.5,83.5 146.5,83.5 145.5,83.5C 147.948,82.5269 150.615,82.1936 153.5,82.5C 153.5,81.5 153.5,80.5 153.5,79.5C 150.813,79.3359 148.146,79.5026 145.5,80C 143.111,80.7388 141.111,81.9054 139.5,83.5C 137.833,83.5 136.167,83.5 134.5,83.5C 135.645,87.077 136.645,90.7437 137.5,94.5C 138.355,90.7437 139.355,87.077 140.5,83.5C 141.5,83.5 142.5,83.5 143.5,83.5C 141.425,86.818 140.092,90.4847 139.5,94.5C 137.955,95.4519 136.288,95.7852 134.5,95.5C 134.664,92.8127 134.497,90.146 134,87.5C 132.703,86.2164 131.536,86.3831 130.5,88C 132.621,94.2875 130.288,96.7875 123.5,95.5C 123.5,96.8333 123.5,98.1667 123.5,99.5C 118.833,99.5 114.167,99.5 109.5,99.5C 108.504,94.7981 105.838,93.1314 101.5,94.5C 101.647,91.5569 102.313,88.7236 103.5,86C 103.15,84.7425 102.483,84.4092 101.5,85C 100.91,86.5095 100.244,88.0095 99.5,89.5C 98.6971,86.9784 97.3638,84.9784 95.5,83.5C 95.9175,82.7784 96.5842,82.2784 97.5,82C 95.8934,80.951 95.2267,79.451 95.5,77.5C 96.8333,77.5 98.1667,77.5 99.5,77.5C 100.167,79.5 100.833,81.5 101.5,83.5C 104.044,83.1043 106.211,83.771 108,85.5C 108.383,84.944 108.883,84.6107 109.5,84.5C 111.571,83.1914 114.071,82.5248 117,82.5C 120.472,82.2605 123.639,82.9272 126.5,84.5C 126.657,85.8734 126.49,87.2068 126,88.5C 124.117,87.3474 123.284,85.6807 123.5,83.5C 122.5,83.5 121.5,83.5 120.5,83.5C 120.5,87.1667 120.5,90.8333 120.5,94.5C 121.5,94.5 122.5,94.5 123.5,94.5C 123.101,88.3588 124.101,88.0254 126.5,93.5C 127.325,94.3857 128.325,94.719 129.5,94.5C 130.08,90.351 129.414,86.6843 127.5,83.5C 126.652,81.9069 125.319,80.7403 123.5,80C 124.793,79.51 126.127,79.3433 127.5,79.5C 125.562,74.6742 122.395,70.6742 118,67.5C 117.51,66.2068 117.343,64.8734 117.5,63.5C 122.167,67.8333 126.833,72.1667 131.5,76.5C 135.683,77.8111 140.016,77.8111 144.5,76.5C 144.376,75.8933 144.043,75.56 143.5,75.5C 139.767,71.7728 136.434,67.7728 133.5,63.5C 135.924,63.8076 138.257,63.4742 140.5,62.5C 139.104,61.1476 138.437,59.4809 138.5,57.5C 139.379,54.1879 139.546,50.8546 139,47.5C 138.5,47 138,46.5 137.5,46C 139.54,44.2315 141.04,42.0648 142,39.5C 142.383,40.056 142.883,40.3893 143.5,40.5 Z"/></g>
<g><path style="opacity:1" fill="#9dacc0" d="M 51.5,26.5 C 51.5,26.8333 51.5,27.1667 51.5,27.5C 51.5,43.8333 51.5,60.1667 51.5,76.5C 64.1667,76.5 76.8333,76.5 89.5,76.5C 89.5,73.5 89.5,70.5 89.5,67.5C 80.3178,67.8266 71.3178,67.4933 62.5,66.5C 71.8333,66.5 81.1667,66.5 90.5,66.5C 90.5,70.1667 90.5,73.8333 90.5,77.5C 77.5,77.5 64.5,77.5 51.5,77.5C 50.5038,62.3424 50.1705,47.0091 50.5,31.5C 50.2155,29.5853 50.5489,27.9187 51.5,26.5 Z"/></g>
<g><path style="opacity:1" fill="#8c99a8" d="M 143.5,75.5 C 144.043,75.56 144.376,75.8933 144.5,76.5C 140.016,77.8111 135.683,77.8111 131.5,76.5C 135.702,76.8168 139.702,76.4834 143.5,75.5 Z"/></g>
<g><path style="opacity:1" fill="#7abacb" d="M 184.5,83.5 C 188.241,82.5985 190.241,83.9319 190.5,87.5C 186.757,87.4592 186.59,88.1259 190,89.5C 190.934,94.0833 189.1,95.5833 184.5,94C 183.289,93.1072 183.289,92.2739 184.5,91.5C 185.609,92.5896 186.609,92.5896 187.5,91.5C 186.653,90.1552 185.487,89.1552 184,88.5C 183.36,86.735 183.527,85.0683 184.5,83.5 Z"/></g>
<g><path style="opacity:1" fill="#69adbf" d="M 139.5,83.5 C 139.833,83.5 140.167,83.5 140.5,83.5C 139.355,87.077 138.355,90.7437 137.5,94.5C 136.645,90.7437 135.645,87.077 134.5,83.5C 136.167,83.5 137.833,83.5 139.5,83.5 Z"/></g>
<g><path style="opacity:1" fill="#75b6c6" d="M 173.5,94.5 C 172.833,94.5 172.5,94.1667 172.5,93.5C 172.5,90.1667 172.5,86.8333 172.5,83.5C 174.199,83.3398 175.866,83.5065 177.5,84C 178.552,85.7165 177.886,86.7165 175.5,87C 178.167,88.3333 178.167,89.6667 175.5,91C 176.91,91.3678 177.91,92.2011 178.5,93.5C 176.955,94.4519 175.288,94.7852 173.5,94.5 Z"/></g>
<g><path style="opacity:1" fill="#6eb4c7" d="M 95.5,83.5 C 97.3638,84.9784 98.6971,86.9784 99.5,89.5C 100.244,88.0095 100.91,86.5095 101.5,85C 102.483,84.4092 103.15,84.7425 103.5,86C 102.313,88.7236 101.647,91.5569 101.5,94.5C 100.167,94.5 98.8333,94.5 97.5,94.5C 96.5367,90.8993 95.87,87.2326 95.5,83.5 Z"/></g>
<g><path style="opacity:1" fill="#73b8c9" d="M 126.5,84.5 C 127.167,84.5 127.5,84.1667 127.5,83.5C 129.414,86.6843 130.08,90.351 129.5,94.5C 128.325,94.719 127.325,94.3857 126.5,93.5C 124.101,88.0254 123.101,88.3588 123.5,94.5C 122.5,94.5 121.5,94.5 120.5,94.5C 120.5,90.8333 120.5,87.1667 120.5,83.5C 121.5,83.5 122.5,83.5 123.5,83.5C 123.284,85.6807 124.117,87.3474 126,88.5C 126.49,87.2068 126.657,85.8734 126.5,84.5 Z"/></g>
<g><path style="opacity:1" fill="#6ab2c7" d="M 109.5,84.5 C 111.288,84.2148 112.955,84.5481 114.5,85.5C 113.975,86.1924 113.308,86.6924 112.5,87C 115.058,88.3799 115.058,89.8799 112.5,91.5C 113.167,92.1667 113.833,92.8333 114.5,93.5C 112.955,94.4519 111.288,94.7852 109.5,94.5C 109.5,91.1667 109.5,87.8333 109.5,84.5 Z"/></g>
<g><path style="opacity:1" fill="#6eb6c7" d="M 159.5,94.5 C 159.5,90.8333 159.5,87.1667 159.5,83.5C 166.536,82.6026 168.203,85.1026 164.5,91C 166.559,92.1855 166.726,93.3521 165,94.5C 163.779,93.7282 162.779,92.7282 162,91.5C 161.764,93.1193 160.931,94.1193 159.5,94.5 Z"/></g>
<g><path style="opacity:1" fill="#6fb4c1" d="M 145.5,83.5 C 146.5,83.5 147.5,83.5 148.5,83.5C 149.167,95.5 149.833,95.5 150.5,83.5C 151.5,83.5 152.5,83.5 153.5,83.5C 153.665,86.5184 153.498,89.5184 153,92.5C 150.667,95.1667 148.333,95.1667 146,92.5C 145.503,89.854 145.336,87.1873 145.5,84.5C 145.5,84.1667 145.5,83.8333 145.5,83.5 Z"/></g>
</svg>
