<?xml version="1.0" encoding="UTF-8"?>
<!DOCTYPE svg PUBLIC "-//W3C//DTD SVG 1.1//EN" "http://www.w3.org/Graphics/SVG/1.1/DTD/svg11.dtd">
<svg xmlns="http://www.w3.org/2000/svg" version="1.1" width="696px" height="580px" style="shape-rendering:geometricPrecision; text-rendering:geometricPrecision; image-rendering:optimizeQuality; fill-rule:evenodd; clip-rule:evenodd" xmlns:xlink="http://www.w3.org/1999/xlink">
<g><path style="opacity:0.994" fill="#e00400" d="M 186.5,-0.5 C 190.5,-0.5 194.5,-0.5 198.5,-0.5C 202.061,1.54988 205.228,4.21655 208,7.5C 248.625,55.7942 289.625,103.794 331,151.5C 331.667,226.833 331.667,302.167 331,377.5C 289,329.5 247,281.5 205,233.5C 192.776,219.382 185.109,203.048 182,184.5C 181.333,124.5 181.333,64.5 182,4.5C 183.025,2.31305 184.525,0.646381 186.5,-0.5 Z"/></g>
<g><path style="opacity:0.996" fill="#e00400" d="M 484.5,-0.5 C 487.5,-0.5 490.5,-0.5 493.5,-0.5C 496.228,1.06914 498.062,3.40247 499,6.5C 499.667,64.5 499.667,122.5 499,180.5C 495.998,199.162 488.664,215.829 477,230.5C 434.667,279.5 392.333,328.5 350,377.5C 349.333,302.167 349.333,226.833 350,151.5C 391.667,102.833 433.333,54.1667 475,5.5C 477.843,2.83733 481.009,0.837327 484.5,-0.5 Z"/></g>
<g><path style="opacity:0.995" fill="#e00400" d="M 581.5,207.5 C 612.875,207.038 644.208,207.538 675.5,209C 682.552,215.676 683.386,223.176 678,231.5C 593.707,330.128 509.041,428.462 424,526.5C 409.117,543.51 391.617,557.01 371.5,567C 364.689,569.619 357.689,571.453 350.5,572.5C 349.333,517.17 349.167,461.836 350,406.5C 394.004,353.349 438.837,300.849 484.5,249C 512.592,225.288 544.925,211.455 581.5,207.5 Z"/></g>
<g><path style="opacity:0.995" fill="#e00400" d="M -0.5,226.5 C -0.5,222.833 -0.5,219.167 -0.5,215.5C 1.2089,210.971 4.54223,208.471 9.5,208C 39.5,207.333 69.5,207.333 99.5,208C 143.743,212.038 180.577,230.538 210,263.5C 250.333,311.167 290.667,358.833 331,406.5C 331.5,461.832 331.667,517.166 331.5,572.5C 310.534,569.016 292.2,560.183 276.5,546C 269.333,538.833 262.167,531.667 255,524.5C 169.105,425.654 83.9385,326.321 -0.5,226.5 Z"/></g>
</svg>
